<svg id="ejXDlFT41Vg1" xmlns="http://www.w3.org/2000/svg" xmlns:xlink="http://www.w3.org/1999/xlink" viewBox="0 0 300 300" shape-rendering="geometricPrecision" text-rendering="geometricPrecision" project-id="206175dc028442ccbd3fd214b656aac9" export-id="a2fa58f4007d47018851112ca2807c9d" cached="false"><ellipse rx="43.198659" ry="43.198659" transform="matrix(-.999618 0.027646-.027646-.999618 138.735313 140.696696)" fill="#646464" stroke-width="0"/><rect width="121.741675" height="66.250392" rx="0" ry="0" transform="matrix(-.424579-.396082 0.682142-.73122 57.044913 233.292855)" fill="#646464" stroke-width="0"/><rect width="121.741675" height="66.250392" rx="0" ry="0" transform="matrix(-.524375 0.249358-.42945-.903091 270.776193 95.404489)" fill="#646464" stroke-width="0"/><rect width="30" height="30" rx="0" ry="0" transform="translate(182.149852 300)" fill="rgba(0,0,0,0)" stroke-width="0"/><polygon points="0,-43.052766 12.65289,-17.41521 40.945614,-13.304036 20.472807,6.652018 25.305781,34.830419 0,21.526383 -25.305781,34.830419 -20.472807,6.652018 -40.945614,-13.304036 -12.65289,-17.41521 0,-43.052766" transform="translate(49.911541 78.627151)" fill="#646464" stroke-width="0"/><polygon points="0,-43.052766 12.65289,-17.41521 40.945614,-13.304036 20.472807,6.652018 25.305781,34.830419 0,21.526383 -25.305781,34.830419 -20.472807,6.652018 -40.945614,-13.304036 -12.65289,-17.41521 0,-43.052766" transform="translate(137.541045 54.430196)" fill="#646464" stroke-width="0"/><polygon points="0,-47.901783 45.557303,-14.802465 28.155962,38.753356 -28.155962,38.753356 -45.557303,-14.802465 0,-47.901783" transform="matrix(.41365 0.910436-.910436 0.41365 137.519547 250.703274)" fill="#646464" stroke-width="0"/><polygon points="0,-47.901783 45.557303,-14.802465 28.155962,38.753356 -28.155962,38.753356 -45.557303,-14.802465 0,-47.901783" transform="matrix(.165478 0.986213-.986213 0.165478 230.063808 185.606207)" fill="#646464" stroke-width="0"/></svg>
